<svg xmlns="http://www.w3.org/2000/svg" style="display: none;"><symbol id="drupal-big-logo" viewBox="0 0 478.168 478.168"><title>drupal-big-logo</title><path id="Drupal_3_" d="M342.787,88.441c-24.566-15.122-47.637-21.039-70.868-36.181C257.534,42.636,237.59,19.684,220.815,0 c-3.068,31.778-12.711,44.808-23.809,54.072c-23.47,18.429-38.253,24.008-58.555,35.225 C121.436,98.143,28.612,153.73,29.21,272.713c0.418,118.864,101.092,206.069,212.524,205.451 c111.392-0.418,207.683-81.567,207.225-203.479C448.501,152.475,357.63,97.645,342.787,88.441z M346.074,431.305 c-2.351,2.371-23.51,17.154-48.434,19.585c-24.984,2.451-58.774,3.805-79.096-14.524c-3.267-3.048-2.411-7.81-0.12-9.563 c2.351-1.972,4.224-3.287,6.913-3.287c2.829,0,2.311,0,3.726,0.877c9.344,7.372,23.171,13.209,52.698,13.13 c29.547-0.1,50.426-8.348,59.691-15.501c4.144-3.088,5.897-0.438,6.535,1.454C348.385,425.248,349.282,428.037,346.074,431.305z M265.762,392.852c4.981-4.582,13.448-11.994,21.298-15.261c7.81-3.307,11.894-2.889,19.326-2.909 c7.372,0,15.401,0.418,20.88,4.104c5.599,3.686,8.926,11.874,10.659,16.457c1.953,4.562,0.04,7.332-3.646,9.344 c-3.228,1.753-3.686,0.857-6.973-5.14c-3.088-5.877-5.957-11.954-22.195-11.914c-16.138,0.239-21.298,5.638-29.108,12.213 c-7.79,6.495-10.659,8.687-13.269,4.981C259.885,401.1,260.722,397.415,265.762,392.852z M432.223,304.312 c0.179,14.305-4.303,40.106-15.381,56.204c-10.998,16.277-17.951,22.354-31.001,21.318c-16.517-1.275-50.108-52.638-71.366-53.475 c-26.757-0.817-84.834,56.125-130.579,56.224c-27.813,0.08-36.081-4.044-45.426-9.902c-13.927-9.663-20.9-24.446-20.521-44.649 c0.359-36.002,33.89-69.693,76.486-70.39c54.072-0.558,91.768,53.116,119.103,52.499c23.071-0.478,67.342-45.944,89.018-45.984 C425.648,266.099,432.203,289.947,432.223,304.312z"/></symbol><symbol id="html5" viewBox="0 0 299.215 299.215"><title>html5</title><path id="XMLID_107_" d="M22.347,0c-2.75,0-4.799,2.241-4.555,4.98l23.184,260.047c0.244,2.739,2.611,5.582,5.262,6.318 l98.381,27.316c2.65,0.736,6.986,0.736,9.637,0.002l98.68-27.361c2.65-0.735,5.02-3.578,5.264-6.316L281.422,4.98 c0.246-2.739-1.805-4.98-4.555-4.98H22.347z M232.049,59.641c-0.219,2.443-0.598,6.684-0.842,9.423l-0.611,6.823 c-0.246,2.738-0.596,6.654-0.781,8.701c-0.184,2.048-0.359,3.723-0.391,3.723c-0.031,0-2.307,0-5.057,0h-69.76 c-2.75,0-5.023,0-5.053,0s-2.305,0-5.055,0h-36.74c-2.75,0-4.799,2.241-4.555,4.98l2.143,23.955c0.244,2.738,2.695,4.98,5.445,4.98 H144.5c2.75,0,5.025,0,5.055,0s2.303,0,5.053,0h57.939c2.75,0,7.006,0,9.457,0c2.449,0,4.273,1.999,4.051,4.442 c-0.223,2.443-0.604,6.685-0.848,9.423l-6.891,77.228c-0.246,2.739-0.557,6.238-0.691,7.776c-0.137,1.537-2.416,3.396-5.066,4.131 l-58.133,16.119c-2.65,0.734-4.852,1.342-4.893,1.351c-0.041,0.009-2.242-0.586-4.893-1.321l-58.195-16.148 c-2.65-0.735-5.018-3.578-5.262-6.317l-3.746-42.045c-0.244-2.739,1.807-4.98,4.557-4.98h5.311c2.75,0,7.25,0,10,0h7.92 c2.75,0,5.199,2.241,5.445,4.98l1.469,16.459c0.244,2.739,2.615,5.566,5.271,6.283l27.221,7.351 c2.654,0.717,4.836,1.304,4.848,1.304s2.193-0.588,4.848-1.305l27.27-7.369c2.654-0.717,5.027-3.545,5.273-6.283l2.957-32.976 c0.246-2.739-1.803-4.98-4.553-4.98h-30.666c-2.75,0-5.023,0-5.053,0s-2.305,0-5.055,0H80.511c-2.75,0-5.199-2.242-5.443-4.98 l-7.256-81.306c-0.244-2.739-0.623-6.979-0.842-9.423c-0.217-2.443,1.854-4.442,4.604-4.442H144.5c2.75,0,5.025,0,5.055,0 s2.303,0,5.053,0h72.838C230.195,55.198,232.267,57.197,232.049,59.641z"/></symbol><symbol id="joomla" viewBox="0 0 533.333 533.333"><title>joomla</title><path d="M138.544,144.103c17.1-17.106,44.792-17.106,61.877-0.016l4.076,4.097l52.659-52.685l-4.101-4.104 c-30.013-30.052-72.143-40.562-110.636-31.522C136.901,25.924,107.478,0.017,72.016,0C32.615,0,0.686,32.001,0.677,71.437 c0,34.029,23.745,62.5,55.553,69.703c-12.051,40.338-2.209,85.851,29.607,117.7l118.66,118.698l52.602-52.714L138.448,206.131 C121.426,189.088,121.395,161.274,138.544,144.103z M532.664,71.437C532.671,31.978,500.726,0,461.317,0 c-36.06,0-65.874,26.794-70.667,61.583c-40.144-11.804-85.306-1.821-117.001,29.9L154.983,210.18l52.657,52.694l118.628-118.675 c17.157-17.17,44.785-17.139,61.813-0.096c17.084,17.099,17.084,44.851-0.016,61.956l-4.058,4.082l52.608,52.733l4.093-4.129 c31.488-31.545,41.499-76.435,30.006-116.478C505.689,137.666,532.664,107.702,532.664,71.437z M472.013,391.18 c9.428-38.781-1.029-81.419-31.306-111.719L322.223,160.715l-52.657,52.667l118.5,118.756c17.156,17.186,17.116,44.841,0.096,61.9 c-17.083,17.09-44.794,17.09-61.894-0.017l-4.045-4.058l-52.602,52.732l4.027,4.023c32.04,32.082,77.926,41.896,118.421,29.421 c6.579,32.649,35.382,57.191,69.926,57.191c39.378,0,71.338-31.952,71.338-71.419C533.333,425.872,506.677,396.051,472.013,391.18z M318.929,275.356L200.421,394.102c-17.037,17.068-44.809,17.099-61.95-0.064c-17.093-17.136-17.1-44.843-0.023-61.962l4.066-4.05 l-52.649-52.668l-4.028,4.017C55.233,310,44.921,353.246,54.875,392.385C23.417,399.811,0,428.131,0,461.914 c-0.008,39.45,31.944,71.419,71.345,71.419c33.906-0.016,62.285-23.655,69.552-55.407c38.907,9.663,81.77-0.678,112.159-31.123 L371.54,328.075L318.929,275.356z"/></symbol><symbol id="paintbrush" viewBox="0 0 444.892 444.892"><title>paintbrush</title><path id="XMLID_503_" d="M440.498,173.103c5.858-5.857,5.858-15.355,0-21.213l-22.511-22.511c-5.091-5.091-13.084-5.846-19.038-1.8 l-47.332,32.17l31.975-47.652c3.993-5.951,3.219-13.897-1.85-18.964l-48.83-48.83c-4.508-4.508-11.372-5.675-17.114-2.908 l-8.443,4.065l4.043-8.97c2.563-5.685,1.341-12.361-3.068-16.771L293.002,4.393c-5.857-5.857-15.355-5.857-21.213,0 l-119.06,119.059l168.71,168.71L440.498,173.103z"/><path id="XMLID_1199_" d="M130.56,145.622l-34.466,34.466c-2.813,2.813-4.394,6.628-4.394,10.606s1.58,7.794,4.394,10.606 l32.694,32.694c6.299,6.299,9.354,14.992,8.382,23.849c-0.971,8.851-5.843,16.677-13.366,21.473 C27.736,340.554,18.781,349.51,15.839,352.453c-21.119,21.118-21.119,55.48,0,76.6c21.14,21.14,55.504,21.098,76.6,0 c2.944-2.943,11.902-11.902,73.136-107.965c4.784-7.505,12.607-12.366,21.462-13.339c8.883-0.969,17.575,2.071,23.859,8.354 l32.694,32.694c5.857,5.857,15.356,5.857,21.213,0l34.467-34.467L130.56,145.622z M70.05,404.825c-8.28,8.28-21.704,8.28-29.983,0 c-8.28-8.28-8.28-21.704,0-29.983c8.28-8.28,21.704-8.28,29.983,0C78.33,383.121,78.33,396.545,70.05,404.825z"/></symbol><symbol id="window-in-a-pc-monitor-screen" viewBox="0 0 203.622 203.622"><title>window-in-a-pc-monitor-screen</title><path style="fill:#010002;" d="M189.523,0H14.102C7.192,0,1.566,5.622,1.566,12.53v132.128c0,6.911,5.626,12.533,12.537,12.533 h49.542c3.679,4.767,11.109,16.212,8.511,21.656c-1.056,2.19-3.922,3.303-8.532,3.303c-24.93,0-25.65,8.836-25.65,9.838v11.635 h127.683v-15.203l-0.709-0.533c-0.308-0.236-7.741-5.737-26.083-5.737c-4.008,0-4.806-1.568-5.071-2.079 c-2.29-4.484,3.912-16.076,8.682-22.88h47.048c6.911,0,12.533-5.622,12.533-12.533V12.53C202.057,5.622,196.431,0,189.523,0z M130.608,181.695c1.36,2.673,4.137,4.03,8.256,4.03c13.94,0,21.069,3.346,23.209,4.567v9.756H41.549v-7.97 c0.183-1.764,4.513-6.352,22.074-6.352c6.109,0,10.06-1.793,11.76-5.336c3.275-6.832-3.493-17.873-7.272-23.195h70.049 C134.427,162.884,127.294,175.224,130.608,181.695z M198.478,144.661c0,4.942-4.012,8.954-8.954,8.954h-44.474H60.781H14.102 c-4.939,0-8.954-4.012-8.954-8.954V12.53c0-4.939,4.015-8.954,8.954-8.954h175.421c4.942,0,8.954,4.015,8.954,8.954 C198.478,12.53,198.478,144.661,198.478,144.661z"/><path style="fill:#010002;" d="M12.313,130.675h179V13.009h-179V130.675z M15.888,16.584H187.73v110.518H15.888V16.584z"/><circle style="fill:#010002;" cx="101.809" cy="144.049" r="5.909"/><path style="fill:#010002;" d="M101.82,44.932L69.399,42.17v28.974v3.582v29.078l32.421-4.839v-0.089l29.712-4.441V74.429v-2.72 V47.545l-29.712-2.527V44.932z M98.918,96.457l-26.612,3.973V74.723h26.612C98.918,74.723,98.918,96.457,98.918,96.457z M98.918,71.14H72.305V45.33l26.612,2.276C98.918,47.606,98.918,71.14,98.918,71.14z M102.021,47.942l26.612,2.273v21.308h-26.612 V47.942z M102.021,74.619h26.612V91.93l-26.612,3.98V74.619z"/></symbol><symbol id="wordpress-logo-button" viewBox="0 0 535.5 535.5"><title>wordpress-logo-button</title><path style="fill:#010002;" d="M267.445,535.5c-36.72,0-71.4-7.038-104.04-21.114c-32.64-14.073-60.996-33.252-85.068-57.525 c-24.072-24.276-43.146-52.734-57.222-85.374C7.039,338.844,0.001,304.166,0.001,267.446s7.038-71.4,21.114-104.04 s33.15-60.996,57.222-85.068s52.428-43.146,85.068-57.222S230.725,0,267.445,0s71.4,7.038,104.041,21.114 c32.639,14.076,61.098,33.15,85.373,57.222c24.277,24.072,43.453,52.428,57.529,85.068c14.072,32.64,21.111,67.32,21.111,104.04 s-7.039,71.397-21.111,104.04c-14.076,32.64-33.252,61.098-57.529,85.374c-24.275,24.273-52.734,43.452-85.373,57.525 C338.845,528.462,304.165,535.5,267.445,535.5z M267.445,18.972c-34.272,0-66.504,6.528-96.696,19.584S114.139,69.36,91.495,91.8 s-40.494,48.756-53.55,78.948s-19.584,62.424-19.584,96.696c0,34.271,6.528,66.504,19.584,96.696 c13.056,30.189,30.906,56.607,53.55,79.254c22.644,22.644,49.062,40.491,79.254,53.55c30.192,13.056,62.424,19.584,96.696,19.584 c34.273,0,66.503-6.528,96.697-19.584c30.189-13.059,56.607-30.906,79.254-53.55c22.643-22.646,40.494-49.063,53.549-79.254 c13.057-30.192,19.584-62.427,19.584-96.696c0-34.272-6.527-66.504-19.584-96.696c-13.055-30.192-30.906-56.508-53.549-78.948 c-22.646-22.44-49.063-40.188-79.254-53.244C333.948,25.5,301.718,18.972,267.445,18.972z M203.185,486.54 c10.2,2.856,20.706,5.103,31.518,6.732s21.726,2.445,32.742,2.445c25.705,0,51-4.485,75.888-13.464l-71.604-192.777 L203.185,486.54z M150.553,138.312c2.448,0,4.692,0.816,6.732,2.448s3.264,3.672,3.672,6.12c0.816,5.712-2.04,8.976-8.568,9.792 c-4.488,0.816-8.772,1.326-12.852,1.53s-8.364,0.51-12.852,0.918l83.232,245.412l50.184-148.104l-36.108-96.696 c-7.752-0.816-13.77-1.53-18.054-2.142s-6.63-0.918-7.038-0.918c-2.448-0.408-4.488-1.632-6.12-3.672s-2.04-4.284-1.224-6.732 c0.408-2.448,1.632-4.488,3.672-6.12s4.284-2.04,6.732-1.224l8.568,1.224c0,0,8.058,0.612,24.174,1.836s28.662,1.224,37.638,0 c8.979-1.224,25.5-2.448,49.572-3.672c2.447,0,4.691,0.816,6.732,2.448c2.039,1.632,3.264,3.672,3.672,6.12 c0.813,5.712-2.041,8.976-8.568,9.792c-4.486,0.816-8.771,1.326-12.852,1.53c-4.082,0.204-8.16,0.51-12.24,0.918l82.619,245.412 c6.529-22.032,11.934-40.392,16.219-55.08c4.283-14.688,7.854-26.724,10.709-36.108c3.268-10.605,5.713-19.176,7.344-25.702 c4.488-14.688,6.225-28.866,5.203-42.536c-1.02-13.668-4.387-25.194-10.098-34.578c-2.449-4.896-6.02-11.016-10.711-18.36 s-8.873-15.198-12.545-23.562c-3.672-8.364-6.121-16.728-7.344-25.092c-1.227-8.364,0-16.014,3.672-22.95 c5.303-9.384,11.219-15.402,17.748-18.054c6.525-2.652,13.26-3.57,20.193-2.754c-20.398-18.768-43.758-33.456-70.072-44.063 c-26.316-10.608-54.365-15.912-84.15-15.912c-39.984,0-76.602,9.282-109.854,27.846s-60.078,43.35-80.478,74.358 c9.792,0.408,20.808,0.408,33.048,0C122.401,141.576,135.865,140.352,150.553,138.312z M39.781,267.444 c0,22.438,3.06,44.062,9.18,64.872c6.12,20.808,14.892,40.086,26.316,57.834c11.424,17.748,24.99,33.66,40.698,47.733 c15.708,14.076,33.15,25.604,52.326,34.578L58.753,176.256C46.105,205.224,39.781,235.62,39.781,267.444z M495.108,267.444 c0-38.352-8.771-73.848-26.316-106.488c0.816,4.488,1.227,8.874,1.227,13.158s-0.203,8.67-0.611,13.158 c-2.449,22.032-6.732,42.024-12.852,59.976c-6.121,17.952-12.037,35.088-17.748,51.408c-2.449,6.936-6.324,18.359-11.629,34.271 c-5.307,15.911-11.018,32.537-17.139,49.88c-6.119,17.34-11.832,33.762-17.135,49.266c-5.305,15.504-9.18,26.52-11.629,33.048 c17.137-9.792,32.641-21.726,46.512-35.802c13.873-14.076,25.809-29.58,35.805-46.513c9.994-16.934,17.748-35.09,23.256-54.47 C492.355,308.958,495.108,288.66,495.108,267.444z"/></symbol></svg>